<?xml version="1.0" encoding="utf-8"?>
<!-- Generator: Adobe Illustrator 25.4.1, SVG Export Plug-In . SVG Version: 6.00 Build 0)  -->
<svg version="1.1" id="Layer_1" xmlns="http://www.w3.org/2000/svg" xmlns:xlink="http://www.w3.org/1999/xlink" x="0px" y="0px"
	 viewBox="0 0 404.21 93.99" style="enable-background:new 0 0 404.21 93.99;" xml:space="preserve">
<style type="text/css">
	.st0{fill:#EA4335;}
	.st1{fill:#4285F4;}
	.st2{fill:#FBBC05;}
	.st3{fill:#34A853;}
	.st4{fill:#FFFFFF;}
</style>
<g>
	<g>
		<path d="M132.13,57.68c-1.55,1.87-3.38,3.3-5.48,4.28c-2.11,0.98-4.46,1.47-7.06,1.47c-2.34,0-4.51-0.42-6.51-1.27
			c-2-0.85-3.74-2-5.2-3.47c-1.46-1.46-2.62-3.2-3.47-5.2c-0.85-2-1.27-4.16-1.27-6.47c0-2.31,0.42-4.47,1.27-6.47
			c0.85-2,2-3.74,3.47-5.2c1.46-1.46,3.2-2.62,5.2-3.47c2-0.85,4.17-1.27,6.51-1.27c2.51,0,4.73,0.44,6.65,1.32
			c1.92,0.88,3.62,2.15,5.11,3.82l-4.17,4.04c-0.94-1.08-2.01-1.94-3.22-2.59c-1.21-0.64-2.65-0.97-4.32-0.97
			c-1.46,0-2.84,0.26-4.12,0.77c-1.29,0.51-2.41,1.24-3.36,2.17c-0.95,0.94-1.7,2.07-2.26,3.4c-0.56,1.33-0.83,2.82-0.83,4.45
			c0,1.64,0.28,3.12,0.83,4.45c0.56,1.33,1.31,2.46,2.26,3.4c0.95,0.94,2.07,1.66,3.36,2.17c1.29,0.51,2.66,0.77,4.12,0.77
			c1.75,0,3.31-0.36,4.67-1.07c1.36-0.72,2.57-1.73,3.62-3.05L132.13,57.68z"/>
		<path d="M148.54,60.45h-0.35c-0.67,0.82-1.48,1.52-2.43,2.11c-0.95,0.58-2.17,0.88-3.66,0.88c-1.11,0-2.16-0.18-3.14-0.55
			c-0.98-0.37-1.84-0.87-2.57-1.51c-0.73-0.64-1.3-1.42-1.71-2.33c-0.41-0.91-0.61-1.9-0.61-2.98c0-1.11,0.22-2.11,0.66-3
			c0.44-0.89,1.05-1.66,1.84-2.3c0.79-0.64,1.72-1.13,2.79-1.47c1.07-0.34,2.23-0.5,3.49-0.5c1.4,0,2.56,0.11,3.47,0.33
			c0.91,0.22,1.65,0.45,2.24,0.68v-0.66c0-1.14-0.45-2.08-1.36-2.83c-0.91-0.75-2.03-1.12-3.38-1.12c-1.99,0-3.67,0.83-5.05,2.5
			l-4.17-2.85c2.28-2.87,5.4-4.3,9.34-4.3c3.33,0,5.88,0.78,7.63,2.35c1.75,1.56,2.63,3.88,2.63,6.95v12.9h-5.66V60.45z M148.54,54
			c-0.67-0.32-1.37-0.58-2.08-0.77c-0.72-0.19-1.5-0.29-2.35-0.29c-1.37,0-2.43,0.3-3.18,0.9c-0.75,0.6-1.12,1.34-1.12,2.22
			c0,0.88,0.36,1.58,1.07,2.11s1.54,0.79,2.48,0.79c0.76,0,1.46-0.14,2.11-0.42c0.64-0.28,1.19-0.64,1.65-1.1
			c0.45-0.45,0.8-0.98,1.05-1.58C148.41,55.26,148.54,54.64,148.54,54z"/>
		<path d="M158.76,62.73V31.32h5.75v31.41H158.76z"/>
		<path d="M189.6,57.24c-0.94,1.81-2.25,3.3-3.93,4.45c-1.68,1.16-3.78,1.73-6.3,1.73c-1.67,0-3.2-0.28-4.58-0.86
			c-1.39-0.57-2.59-1.37-3.6-2.39c-1.01-1.02-1.8-2.23-2.37-3.62c-0.57-1.39-0.86-2.92-0.86-4.58c0-1.67,0.29-3.2,0.86-4.61
			c0.57-1.4,1.36-2.61,2.37-3.62c1.01-1.01,2.21-1.8,3.6-2.37c1.39-0.57,2.92-0.86,4.58-0.86c2.48,0,4.58,0.57,6.27,1.71
			c1.7,1.14,2.94,2.62,3.73,4.43l-5.26,2.19c-0.5-0.99-1.13-1.75-1.91-2.26c-0.77-0.51-1.75-0.77-2.92-0.77
			c-0.76,0-1.48,0.15-2.15,0.44c-0.67,0.29-1.27,0.7-1.78,1.23c-0.51,0.53-0.91,1.17-1.21,1.93c-0.29,0.76-0.44,1.61-0.44,2.54
			c0,0.94,0.15,1.78,0.44,2.54c0.29,0.76,0.69,1.4,1.21,1.93c0.51,0.53,1.1,0.94,1.78,1.23c0.67,0.29,1.39,0.44,2.15,0.44
			c1.2,0,2.22-0.27,3.05-0.81c0.83-0.54,1.5-1.32,2-2.35L189.6,57.24z"/>
		<path d="M207.98,59.92h-0.35c-0.67,1.08-1.58,1.94-2.72,2.57s-2.44,0.94-3.9,0.94c-2.72,0-4.75-0.83-6.08-2.5
			c-1.33-1.67-2-3.89-2-6.67V41.23h5.75v12.33c0,1.55,0.34,2.7,1.03,3.44c0.69,0.75,1.69,1.12,3.01,1.12c0.79,0,1.48-0.17,2.08-0.5
			c0.6-0.34,1.11-0.79,1.54-1.36c0.42-0.57,0.75-1.24,0.97-2.02c0.22-0.77,0.33-1.6,0.33-2.48V41.23h5.75v21.5h-5.4V59.92z"/>
		<path d="M218.29,62.73V31.32h5.75v31.41H218.29z"/>
		<path d="M241.98,60.45h-0.35c-0.67,0.82-1.49,1.52-2.44,2.11c-0.95,0.58-2.17,0.88-3.66,0.88c-1.11,0-2.16-0.18-3.14-0.55
			c-0.98-0.37-1.84-0.87-2.57-1.51c-0.73-0.64-1.3-1.42-1.71-2.33c-0.41-0.91-0.61-1.9-0.61-2.98c0-1.11,0.22-2.11,0.66-3
			c0.44-0.89,1.05-1.66,1.84-2.3c0.79-0.64,1.72-1.13,2.79-1.47c1.07-0.34,2.23-0.5,3.49-0.5c1.4,0,2.56,0.11,3.47,0.33
			c0.91,0.22,1.65,0.45,2.24,0.68v-0.66c0-1.14-0.45-2.08-1.36-2.83c-0.91-0.75-2.03-1.12-3.38-1.12c-1.99,0-3.67,0.83-5.04,2.5
			l-4.17-2.85c2.28-2.87,5.4-4.3,9.34-4.3c3.33,0,5.88,0.78,7.63,2.35c1.76,1.56,2.63,3.88,2.63,6.95v12.9h-5.66V60.45z M241.98,54
			c-0.67-0.32-1.37-0.58-2.08-0.77c-0.72-0.19-1.5-0.29-2.35-0.29c-1.38,0-2.44,0.3-3.18,0.9c-0.75,0.6-1.12,1.34-1.12,2.22
			c0,0.88,0.36,1.58,1.07,2.11s1.54,0.79,2.48,0.79c0.76,0,1.46-0.14,2.11-0.42c0.64-0.28,1.19-0.64,1.65-1.1
			c0.45-0.45,0.8-0.98,1.05-1.58C241.86,55.26,241.98,54.64,241.98,54z"/>
		<path d="M254.13,46.15h-3.77v-4.91h3.77v-6.58h5.75v6.58h5.26v4.91h-5.26v8.59c0,0.51,0.05,0.99,0.15,1.42
			c0.1,0.44,0.3,0.81,0.59,1.11c0.41,0.48,0.99,0.72,1.75,0.72c0.5,0,0.89-0.05,1.18-0.15c0.29-0.1,0.57-0.24,0.83-0.42l1.62,5.04
			c-0.67,0.32-1.4,0.56-2.17,0.72c-0.78,0.16-1.63,0.24-2.57,0.24c-1.08,0-2.05-0.17-2.92-0.51c-0.86-0.34-1.59-0.81-2.17-1.41
			c-1.38-1.34-2.06-3.25-2.06-5.73V46.15z"/>
		<path d="M279.31,40.53c1.67,0,3.2,0.29,4.58,0.86c1.39,0.57,2.59,1.36,3.6,2.37s1.8,2.22,2.37,3.62c0.57,1.4,0.86,2.94,0.86,4.61
			c0,1.67-0.29,3.2-0.86,4.61c-0.57,1.4-1.36,2.61-2.37,3.62s-2.21,1.8-3.6,2.37c-1.39,0.57-2.92,0.86-4.58,0.86
			c-1.67,0-3.2-0.28-4.58-0.86c-1.39-0.57-2.59-1.36-3.6-2.37c-1.01-1.01-1.8-2.22-2.37-3.62c-0.57-1.4-0.86-2.94-0.86-4.61
			c0-1.67,0.29-3.2,0.86-4.61c0.57-1.4,1.36-2.61,2.37-3.62c1.01-1.01,2.21-1.8,3.6-2.37C276.12,40.82,277.65,40.53,279.31,40.53z
			 M279.31,58.12c0.73,0,1.44-0.14,2.13-0.42c0.69-0.28,1.29-0.68,1.82-1.21c0.53-0.53,0.94-1.17,1.25-1.93
			c0.31-0.76,0.46-1.62,0.46-2.59c0-0.96-0.15-1.83-0.46-2.59c-0.31-0.76-0.72-1.4-1.25-1.93c-0.53-0.53-1.13-0.93-1.82-1.21
			c-0.69-0.28-1.4-0.42-2.13-0.42c-0.76,0-1.48,0.14-2.15,0.42c-0.67,0.28-1.27,0.68-1.8,1.21c-0.53,0.53-0.94,1.17-1.25,1.93
			c-0.31,0.76-0.46,1.62-0.46,2.59c0,0.97,0.15,1.83,0.46,2.59c0.31,0.76,0.72,1.4,1.25,1.93s1.13,0.93,1.8,1.21
			C277.84,57.98,278.55,58.12,279.31,58.12z"/>
		<path d="M293.97,41.23h5.4v2.98h0.35c0.26-0.53,0.61-1.01,1.05-1.45c0.44-0.44,0.93-0.82,1.47-1.15c0.54-0.33,1.13-0.59,1.75-0.79
			c0.63-0.2,1.25-0.3,1.86-0.3c0.76,0,1.41,0.08,1.95,0.24c0.54,0.16,1,0.37,1.38,0.63l-1.54,5.13c-0.35-0.18-0.74-0.31-1.16-0.42
			c-0.42-0.1-0.94-0.15-1.56-0.15c-0.79,0-1.51,0.15-2.15,0.46c-0.64,0.31-1.19,0.74-1.65,1.3c-0.45,0.56-0.8,1.21-1.05,1.96
			c-0.25,0.75-0.37,1.57-0.37,2.45v10.58h-5.75V41.23z"/>
		<path d="M339.46,57.73c-1.4,1.7-3.12,3.07-5.15,4.12c-2.03,1.05-4.39,1.58-7.08,1.58c-2.31,0-4.45-0.42-6.41-1.27
			c-1.96-0.85-3.66-2.01-5.09-3.49c-1.43-1.48-2.56-3.22-3.38-5.22c-0.82-2-1.23-4.15-1.23-6.43c0-2.28,0.41-4.42,1.23-6.43
			c0.82-2,1.94-3.74,3.38-5.22c1.43-1.48,3.13-2.64,5.09-3.49c1.96-0.85,4.09-1.27,6.41-1.27c2.43,0,4.58,0.45,6.45,1.34
			c1.87,0.89,3.51,2.16,4.91,3.79l-2.02,1.93c-2.4-2.92-5.51-4.39-9.34-4.39c-1.81,0-3.53,0.34-5.13,1.01
			c-1.61,0.67-3.01,1.61-4.21,2.81c-1.2,1.2-2.15,2.64-2.85,4.32c-0.7,1.68-1.05,3.55-1.05,5.59c0,2.05,0.35,3.91,1.05,5.59
			c0.7,1.68,1.65,3.13,2.85,4.34c1.2,1.21,2.6,2.15,4.21,2.81c1.61,0.66,3.32,0.99,5.13,0.99c2.19,0,4.12-0.44,5.79-1.32
			c1.67-0.88,3.14-2.09,4.43-3.64L339.46,57.73z"/>
		<path d="M357.53,58.91h-0.18c-0.73,1.26-1.75,2.33-3.05,3.2c-1.3,0.88-2.82,1.32-4.54,1.32c-1.17,0-2.25-0.18-3.25-0.55
			c-0.99-0.37-1.86-0.86-2.59-1.49c-0.73-0.63-1.3-1.38-1.71-2.26s-0.61-1.83-0.61-2.85c0-1.17,0.24-2.21,0.72-3.11
			c0.48-0.91,1.14-1.67,1.97-2.28c0.83-0.61,1.8-1.07,2.9-1.38c1.1-0.31,2.26-0.46,3.49-0.46c1.46,0,2.78,0.17,3.95,0.5
			c1.17,0.34,2.13,0.72,2.89,1.16v-1.32c0-0.97-0.18-1.84-0.53-2.63c-0.35-0.79-0.82-1.46-1.4-2.02c-0.59-0.56-1.28-0.98-2.08-1.27
			c-0.8-0.29-1.64-0.44-2.52-0.44c-1.32,0-2.49,0.29-3.51,0.86c-1.02,0.57-1.87,1.4-2.54,2.48l-2.46-1.54
			c0.85-1.32,2-2.36,3.47-3.14c1.46-0.77,3.11-1.16,4.96-1.16c1.43,0,2.72,0.21,3.86,0.64c1.14,0.42,2.12,1.02,2.94,1.8
			c0.82,0.78,1.45,1.7,1.89,2.76c0.44,1.07,0.66,2.26,0.66,3.58v13.42h-2.72V58.91z M357.53,53.16c-0.88-0.53-1.84-0.96-2.87-1.29
			c-1.04-0.34-2.22-0.5-3.53-0.5c-0.96,0-1.85,0.12-2.65,0.35c-0.8,0.23-1.51,0.56-2.11,0.99c-0.6,0.42-1.07,0.94-1.4,1.56
			c-0.34,0.61-0.5,1.3-0.5,2.06c0,0.7,0.15,1.34,0.46,1.91c0.31,0.57,0.72,1.05,1.25,1.45c0.53,0.39,1.12,0.7,1.78,0.92
			c0.66,0.22,1.34,0.33,2.04,0.33c0.96,0,1.9-0.2,2.81-0.61c0.91-0.41,1.71-0.97,2.41-1.69c0.7-0.72,1.27-1.54,1.69-2.48
			C357.32,55.21,357.53,54.22,357.53,53.16z"/>
		<path d="M372.41,63.43c-1.17,0-2.24-0.17-3.22-0.5c-0.98-0.34-1.84-0.79-2.59-1.36c-0.75-0.57-1.39-1.23-1.93-1.97
			c-0.54-0.75-0.96-1.53-1.25-2.35l2.5-1.05c0.58,1.55,1.47,2.73,2.65,3.53c1.18,0.8,2.46,1.21,3.84,1.21
			c1.73,0,3.09-0.38,4.08-1.14c0.99-0.76,1.49-1.67,1.49-2.72c0-0.44-0.07-0.85-0.22-1.23c-0.15-0.38-0.41-0.74-0.79-1.07
			c-0.38-0.34-0.89-0.64-1.54-0.92c-0.64-0.28-1.46-0.53-2.46-0.77l-2.98-0.7c-0.67-0.18-1.37-0.4-2.08-0.68
			c-0.72-0.28-1.37-0.64-1.95-1.1c-0.59-0.45-1.06-1-1.43-1.65c-0.37-0.64-0.55-1.39-0.55-2.24c0-0.99,0.23-1.87,0.68-2.63
			c0.45-0.76,1.07-1.4,1.84-1.93c0.77-0.53,1.66-0.93,2.65-1.21c0.99-0.28,2.02-0.42,3.07-0.42c0.91,0,1.78,0.11,2.63,0.33
			c0.85,0.22,1.63,0.53,2.35,0.94c0.72,0.41,1.35,0.93,1.91,1.56c0.55,0.63,0.99,1.35,1.32,2.17l-2.46,1.01
			c-0.59-1.23-1.38-2.12-2.39-2.68c-1.01-0.56-2.17-0.83-3.49-0.83c-0.64,0-1.28,0.08-1.91,0.24c-0.63,0.16-1.19,0.39-1.69,0.7
			c-0.5,0.31-0.9,0.69-1.21,1.14c-0.31,0.45-0.46,0.96-0.46,1.51c0,0.91,0.39,1.61,1.16,2.11c0.77,0.5,1.86,0.92,3.27,1.27
			l3.16,0.79c2.19,0.56,3.81,1.35,4.85,2.39c1.04,1.04,1.56,2.26,1.56,3.66c0,0.91-0.2,1.75-0.59,2.54
			c-0.39,0.79-0.96,1.48-1.71,2.08c-0.75,0.6-1.64,1.07-2.68,1.43C374.81,63.25,373.66,63.43,372.41,63.43z"/>
		<path d="M399.39,58.91h-0.18c-0.73,1.26-1.75,2.33-3.05,3.2c-1.3,0.88-2.82,1.32-4.54,1.32c-1.17,0-2.25-0.18-3.25-0.55
			c-0.99-0.37-1.86-0.86-2.59-1.49c-0.73-0.63-1.3-1.38-1.71-2.26c-0.41-0.88-0.61-1.83-0.61-2.85c0-1.17,0.24-2.21,0.72-3.11
			c0.48-0.91,1.14-1.67,1.97-2.28c0.83-0.61,1.8-1.07,2.9-1.38c1.1-0.31,2.26-0.46,3.49-0.46c1.46,0,2.78,0.17,3.95,0.5
			c1.17,0.34,2.13,0.72,2.89,1.16v-1.32c0-0.97-0.18-1.84-0.53-2.63c-0.35-0.79-0.82-1.46-1.4-2.02c-0.59-0.56-1.28-0.98-2.08-1.27
			c-0.8-0.29-1.64-0.44-2.52-0.44c-1.32,0-2.49,0.29-3.51,0.86c-1.02,0.57-1.87,1.4-2.54,2.48l-2.46-1.54
			c0.85-1.32,2-2.36,3.47-3.14c1.46-0.77,3.11-1.16,4.96-1.16c1.43,0,2.72,0.21,3.86,0.64c1.14,0.42,2.12,1.02,2.94,1.8
			c0.82,0.78,1.45,1.7,1.89,2.76c0.44,1.07,0.66,2.26,0.66,3.58v13.42h-2.72V58.91z M399.39,53.16c-0.88-0.53-1.84-0.96-2.87-1.29
			c-1.04-0.34-2.22-0.5-3.53-0.5c-0.96,0-1.85,0.12-2.65,0.35c-0.8,0.23-1.51,0.56-2.11,0.99c-0.6,0.42-1.07,0.94-1.4,1.56
			c-0.34,0.61-0.5,1.3-0.5,2.06c0,0.7,0.15,1.34,0.46,1.91c0.31,0.57,0.72,1.05,1.25,1.45c0.53,0.39,1.12,0.7,1.78,0.92
			c0.66,0.22,1.34,0.33,2.04,0.33c0.96,0,1.9-0.2,2.81-0.61c0.91-0.41,1.71-0.97,2.41-1.69c0.7-0.72,1.27-1.54,1.69-2.48
			C399.17,55.21,399.39,54.22,399.39,53.16z"/>
	</g>
	<g>
		<path class="st0" d="M47.01,47.02l31.75-31.75c-17.54-17.54-45.97-17.54-63.5,0L47.01,47.02z"/>
		<path class="st1" d="M47.01,47.02l31.75,31.75c17.54-17.54,17.54-45.97,0-63.5L47.01,47.02z"/>
		<path class="st2" d="M47.01,47.02L15.26,78.77c-17.54-17.54-17.54-45.97,0-63.5L47.01,47.02z"/>
		<path class="st3" d="M47.01,47.02l31.75,31.75c-17.54,17.54-45.97,17.54-63.5,0L47.01,47.02z"/>
		<path class="st4" d="M49.12,18.37h6.28v4.26h-6.28v6.24h-4.26v-6.24h-6.24v-4.26h6.24v-6.24h4.26V18.37z"/>
		<path class="st4" d="M67.3,44.89h12.45v4.26H67.3V44.89z"/>
		<path class="st4" d="M38.39,67.74h17.23V72H38.39V67.74z M38.39,75.09h17.23v4.26H38.39V75.09z"/>
		<path class="st4" d="M17.45,47.02l-5.99-5.73l2.98-2.98l6.06,5.8l6.02-5.8l2.98,2.98l-5.99,5.73l5.99,5.73l-2.98,2.98l-6.02-5.8
			l-6.06,5.8l-2.98-2.98L17.45,47.02z"/>
	</g>
</g>
</svg>
